<?xml version="1.0" standalone="no"?>
<!DOCTYPE svg PUBLIC "-//W3C//DTD SVG 20010904//EN"
 "http://www.w3.org/TR/2001/REC-SVG-20010904/DTD/svg10.dtd">
<svg version="1.0" xmlns="http://www.w3.org/2000/svg"
 width="274.000000pt" height="213.000000pt" viewBox="0 0 274.000000 213.000000"
 preserveAspectRatio="xMidYMid meet">

<g transform="translate(0.000000,213.000000) scale(0.100000,-0.100000)"
fill="#000000" stroke="none">
<path d="M868 1720 c-149 -25 -277 -142 -278 -252 l0 -38 -53 0 c-39 0 -61 -6
-88 -24 -35 -24 -69 -78 -69 -110 0 -9 -8 -16 -17 -16 -29 -1 -106 -39 -136
-68 -71 -67 -91 -177 -48 -265 55 -113 195 -166 321 -122 41 15 43 14 62 -10
47 -61 138 -73 204 -29 23 16 40 22 42 15 8 -23 93 -72 153 -87 72 -18 132
-14 213 17 52 19 123 75 143 113 10 18 12 17 55 -8 54 -31 100 -33 153 -6 39
20 41 20 95 3 126 -39 283 -7 330 69 48 75 4 165 -105 219 -65 32 -65 32 -65
74 0 80 -72 149 -187 181 -49 13 -63 21 -63 36 0 64 -88 169 -177 213 -42 20
-78 29 -128 32 -47 3 -85 12 -115 28 -42 22 -143 47 -179 44 -9 -1 -37 -5 -63
-9z m30 -438 c26 -17 2 -39 -40 -38 -53 1 -83 -32 -74 -84 7 -43 29 -60 78
-60 31 0 38 -4 38 -19 0 -44 -112 -32 -149 16 -42 52 -18 152 42 178 36 16 85
19 105 7z m188 -11 c54 -33 68 -122 29 -179 -39 -55 -147 -45 -179 17 -57 109
50 223 150 162z m158 -223 c8 -13 5 -24 -12 -48 -22 -29 -22 -30 -2 -30 11 0
20 -4 20 -10 0 -5 -20 -10 -45 -10 -25 0 -45 3 -45 7 0 4 14 21 31 39 31 32
32 56 1 53 -27 -2 -34 0 -27 12 10 15 66 6 79 -13z"/>
<path d="M995 1230 c-27 -29 -24 -99 5 -122 28 -23 35 -23 60 2 29 29 28 103
-2 124 -29 21 -41 20 -63 -4z"/>
<path d="M1543 1439 c4 -13 7 -27 7 -31 0 -5 7 -8 15 -8 34 0 131 -45 168 -79
44 -40 67 -84 67 -130 0 -26 6 -33 43 -49 94 -41 155 -126 141 -197 -9 -51
-57 -101 -120 -124 -69 -26 -178 -27 -249 -3 -48 17 -51 17 -84 -2 -46 -27
-117 -26 -162 1 l-34 22 -31 -38 c-18 -20 -60 -52 -95 -71 -54 -28 -77 -35
-144 -38 -97 -5 -147 7 -215 53 -29 19 -56 35 -61 35 -16 0 -10 -53 12 -97 56
-115 218 -174 334 -121 21 10 29 7 64 -25 61 -55 138 -61 196 -16 l25 21 31
-27 c58 -48 110 -68 190 -73 118 -7 235 42 290 122 l22 33 35 -23 c49 -34 115
-35 168 -4 30 17 33 17 90 -2 78 -26 190 -22 257 11 136 66 106 220 -57 287
-43 17 -46 21 -40 47 15 73 -82 174 -193 198 -52 12 -53 13 -67 63 -27 94
-123 178 -239 211 -32 9 -74 15 -95 14 -24 -2 -57 7 -95 25 -35 17 -83 30
-119 34 -61 5 -61 5 -55 -19z"/>
</g>
</svg>
